<?xml version="1.0" encoding="UTF-8"?>
<svg width="180" height="180" viewBox="0 0 180 180" xmlns="http://www.w3.org/2000/svg">
  <defs>
    <linearGradient id="logoGradient" x1="0%" y1="0%" x2="100%" y2="100%">
      <stop offset="0%" stop-color="#3b82f6" />
      <stop offset="100%" stop-color="#22c55e" />
    </linearGradient>
    <filter id="glow" x="-20%" y="-20%" width="140%" height="140%">
      <feGaussianBlur in="SourceGraphic" stdDeviation="6" result="blur" />
      <feComposite in="SourceGraphic" in2="blur" operator="over" />
    </filter>
  </defs>
  <rect width="180" height="180" rx="24" fill="#111827" />
  <g filter="url(#glow)">
    <path d="M112 63.2c-.4 2.5-1.5 4.8-3.2 6.7-1.8 1.9-4 3.2-6.5 3.6-2.5.4-5.1.1-7.4-1.1-2.3-1.1-4.2-2.9-5.4-5.3-1.2-2.3-1.6-4.9-1.2-7.5.4-2.5 1.5-4.8 3.2-6.7 1.8-1.9 4-3.2 6.5-3.6 2.5-.4 5.1-.1 7.4 1.1 2.3 1.1 4.2 2.9 5.4 5.3 1.2 2.3 1.6 4.9 1.2 7.5z" fill="url(#logoGradient)" />
    <path d="M90 69l-25 25M115 94l-25-25M90 69v50M90 119l-35-35M90 119l35-35" stroke="url(#logoGradient)" stroke-width="6" stroke-linecap="round" />
  </g>
  <text x="90" y="145" text-anchor="middle" fill="white" font-family="Arial, sans-serif" font-weight="bold" font-size="18">PromptPolish</text>
</svg>